<?xml version="1.0" encoding="utf-8"?>
<!-- Generator: Adobe Illustrator 26.2.1, SVG Export Plug-In . SVG Version: 6.00 Build 0)  -->
<svg version="1.1" id="Layer_1" xmlns="http://www.w3.org/2000/svg" xmlns:xlink="http://www.w3.org/1999/xlink" x="0px" y="0px"
	 viewBox="0 0 1721 1394.65" style="enable-background:new 0 0 1721 1394.65;" xml:space="preserve">
<style type="text/css">
	.st0{fill:url(#SVGID_1_);}
	.st1{fill:url(#SVGID_00000046319025904244277800000017859003309653487293_);}
	.st2{fill:url(#SVGID_00000108999224108911125690000003234713465890236292_);}
	.st3{fill:url(#SVGID_00000101074112861284044850000011434535209925290163_);}
	.st4{fill:url(#SVGID_00000054255244436058939410000012028385075970546873_);}
	.st5{fill:url(#SVGID_00000124871412861608976160000016694075355802877078_);}
	.st6{fill:url(#SVGID_00000119798277337423381090000007449874839006850183_);}
	.st7{fill:url(#SVGID_00000039116758131772065570000008128542818911877804_);}
	.st8{fill:url(#SVGID_00000104677303516825798090000000439137086426241976_);}
	.st9{fill:url(#SVGID_00000159437431577260563970000009998219565951669431_);}
	.st10{fill:url(#SVGID_00000173846220594974929230000017885530339864177834_);}
	.st11{fill:url(#SVGID_00000141427422239130741700000017096738079170784403_);}
	.st12{fill:url(#SVGID_00000167374877585830673790000010625140732521739141_);}
	.st13{fill:url(#SVGID_00000166633941166827910230000002529493396448250277_);}
	.st14{fill:#1534F6;}
</style>
<g>
	<g>
		<linearGradient id="SVGID_1_" gradientUnits="userSpaceOnUse" x1="621.971" y1="503.9436" x2="914.4049" y2="503.9436">
			<stop  offset="6.393348e-08" style="stop-color:#142FFA"/>
			<stop  offset="0.177" style="stop-color:#1432FA"/>
			<stop  offset="0.3189" style="stop-color:#143CFA"/>
			<stop  offset="0.4488" style="stop-color:#154DFB"/>
			<stop  offset="0.5714" style="stop-color:#1665FB"/>
			<stop  offset="0.689" style="stop-color:#1784FC"/>
			<stop  offset="0.8027" style="stop-color:#18A9FD"/>
			<stop  offset="0.9113" style="stop-color:#1AD5FE"/>
			<stop  offset="1" style="stop-color:#1BFFFF"/>
		</linearGradient>
		<path class="st0" d="M887,430.46c0,0,20.63,32.54,26.25,69.21l1.16,9.28l-0.03,85.57c0,0-4.61,26.72-21.67,40.53
			c-17.07,13.81-28.7,17.32-43.88,18.79s-37.46-7.24-45.66-15.17c-8.2-7.92-23.83-23.66-25.93-47.65l0.11-97.12h-95.97
			c0,0-50.64-5.32-59.4-60.22v-20.6c0,0,6.1-48.79,56.74-59.2h85.15C763.86,353.88,836.5,354.03,887,430.46z"/>
		
			<linearGradient id="SVGID_00000077325773335716272680000012544980038510103742_" gradientUnits="userSpaceOnUse" x1="887.3856" y1="431.0782" x2="887.3856" y2="431.0782">
			<stop  offset="6.393348e-08" style="stop-color:#142FFA"/>
			<stop  offset="0.177" style="stop-color:#1432FA"/>
			<stop  offset="0.3189" style="stop-color:#143CFA"/>
			<stop  offset="0.4488" style="stop-color:#154DFB"/>
			<stop  offset="0.5714" style="stop-color:#1665FB"/>
			<stop  offset="0.689" style="stop-color:#1784FC"/>
			<stop  offset="0.8027" style="stop-color:#18A9FD"/>
			<stop  offset="0.9113" style="stop-color:#1AD5FE"/>
			<stop  offset="1" style="stop-color:#1BFFFF"/>
		</linearGradient>
		<path style="fill:url(#SVGID_00000077325773335716272680000012544980038510103742_);" d="M887.39,431.08"/>
		
			<linearGradient id="SVGID_00000057868452819300255500000011689725346449928608_" gradientUnits="userSpaceOnUse" x1="837.2948" y1="380.292" x2="837.2948" y2="380.292">
			<stop  offset="6.393348e-08" style="stop-color:#142FFA"/>
			<stop  offset="0.177" style="stop-color:#1432FA"/>
			<stop  offset="0.3189" style="stop-color:#143CFA"/>
			<stop  offset="0.4488" style="stop-color:#154DFB"/>
			<stop  offset="0.5714" style="stop-color:#1665FB"/>
			<stop  offset="0.689" style="stop-color:#1784FC"/>
			<stop  offset="0.8027" style="stop-color:#18A9FD"/>
			<stop  offset="0.9113" style="stop-color:#1AD5FE"/>
			<stop  offset="1" style="stop-color:#1BFFFF"/>
		</linearGradient>
		<path style="fill:url(#SVGID_00000057868452819300255500000011689725346449928608_);" d="M837.29,380.29"/>
	</g>
	
		<linearGradient id="SVGID_00000048472636593528734760000010853333974776370081_" gradientUnits="userSpaceOnUse" x1="778.5544" y1="344.9001" x2="1070.7876" y2="344.9001">
		<stop  offset="4.688455e-07" style="stop-color:#FF1616"/>
		<stop  offset="0.2004" style="stop-color:#FF1917"/>
		<stop  offset="0.3612" style="stop-color:#FF2319"/>
		<stop  offset="0.5082" style="stop-color:#FE341D"/>
		<stop  offset="0.647" style="stop-color:#FE4C23"/>
		<stop  offset="0.7802" style="stop-color:#FD6B2A"/>
		<stop  offset="0.9072" style="stop-color:#FC9033"/>
		<stop  offset="1" style="stop-color:#FBB03B"/>
	</linearGradient>
	<path style="fill:url(#SVGID_00000048472636593528734760000010853333974776370081_);" d="M1011.79,494.71c0,0,46.55-2.47,59-58.91
		v-22.02c0,0-4.54-48.31-56.85-59.03h-98.41l-0.01-77.42l0-19.78c0,0-4.13-52.96-59.09-62.47h-19.06c0,0-3.64,0.38-9.13,1.98
		c-14.96,4.38-43.62,17.92-49.67,57.97v83.31l1.05,8.33c0,0,115.53,19.1,141.24,145.88c0,0,9.36,2.39,10.58,2.17
		C932.65,494.49,1011.79,494.71,1011.79,494.71z"/>
	
		<linearGradient id="SVGID_00000043448325245644825800000003855791896090715046_" gradientUnits="userSpaceOnUse" x1="570.9543" y1="435.7091" x2="1141.9911" y2="435.7091">
		<stop  offset="1.385225e-07" style="stop-color:#00A8C5"/>
		<stop  offset="0.2215" style="stop-color:#03AAC4"/>
		<stop  offset="0.3992" style="stop-color:#0DAEC2"/>
		<stop  offset="0.5616" style="stop-color:#1EB6BF"/>
		<stop  offset="0.715" style="stop-color:#36C2BB"/>
		<stop  offset="0.8606" style="stop-color:#54D0B5"/>
		<stop  offset="1" style="stop-color:#79E2AE"/>
	</linearGradient>
	<path style="fill:url(#SVGID_00000043448325245644825800000003855791896090715046_);" d="M1084.29,420.87c0,0,3.55-24,24.97-25.81
		h8.79c0,0,18.17,1.15,23.94,21.87v26.43c0,0-13.52,240.73-266.19,274.53c-15.88,1.8-31.4,1.82-46.54,0
		c0,0-156.96-7.66-227.59-157.63c-12.6-26.75-22.45-58.03-28.18-94.6c0,0-23.05-124.48,70.04-225.9S846.1,152.9,846.1,152.9
		s-102.02-0.39-173.1,73.05s-93.75,151-76.47,249.86s110.82,200.28,239.82,202.09S1087.98,574.21,1084.29,420.87z"/>
</g>
<g>
	
		<linearGradient id="SVGID_00000128459244786716963430000007638312205227663528_" gradientUnits="userSpaceOnUse" x1="511.3421" y1="817.3188" x2="1264.7289" y2="817.3188">
		<stop  offset="6.393348e-08" style="stop-color:#142FFA"/>
		<stop  offset="0.4307" style="stop-color:#1534F6"/>
		<stop  offset="0.7143" style="stop-color:#1898FA"/>
		<stop  offset="0.9979" style="stop-color:#1BFFFF"/>
	</linearGradient>
	<path style="fill:url(#SVGID_00000128459244786716963430000007638312205227663528_);" d="M557.79,857.58
		c-6.12,0-11.8-0.98-17.03-2.93c-5.24-1.95-9.75-4.74-13.55-8.35c-3.8-3.61-6.77-7.87-8.9-12.77c-2.14-4.9-3.21-10.3-3.21-16.2
		c0-5.9,1.07-11.3,3.21-16.2c2.14-4.9,5.12-9.16,8.96-12.77c3.83-3.61,8.39-6.4,13.66-8.35c5.27-1.95,11.04-2.93,17.31-2.93
		c7.3,0,13.83,1.22,19.58,3.65c5.75,2.43,10.51,5.94,14.27,10.51l-13.94,12.61c-2.65-2.88-5.51-5.03-8.57-6.47
		c-3.06-1.44-6.47-2.16-10.23-2.16c-3.32,0-6.34,0.52-9.07,1.55c-2.73,1.03-5.05,2.53-6.97,4.48c-1.92,1.96-3.41,4.28-4.48,6.97
		c-1.07,2.69-1.6,5.73-1.6,9.12c0,3.25,0.53,6.23,1.6,8.96c1.07,2.73,2.56,5.07,4.48,7.02c1.92,1.95,4.22,3.47,6.91,4.53
		c2.69,1.07,5.66,1.6,8.9,1.6c3.24,0,6.41-0.53,9.51-1.6c3.1-1.07,6.23-2.89,9.4-5.47l12.28,15.37c-4.42,3.17-9.55,5.6-15.37,7.3
		C569.11,856.73,563.4,857.58,557.79,857.58z M570.96,844.86v-29.2h19.36v32.08L570.96,844.86z"/>
	
		<linearGradient id="SVGID_00000088829761593892569910000013215642781444419735_" gradientUnits="userSpaceOnUse" x1="511.3421" y1="817.3188" x2="1264.7289" y2="817.3188">
		<stop  offset="6.393348e-08" style="stop-color:#142FFA"/>
		<stop  offset="0.4307" style="stop-color:#1534F6"/>
		<stop  offset="0.7143" style="stop-color:#1898FA"/>
		<stop  offset="0.9979" style="stop-color:#1BFFFF"/>
	</linearGradient>
	<path style="fill:url(#SVGID_00000088829761593892569910000013215642781444419735_);" d="M604.25,856.03v-77.42h21.9v60.06h36.94
		v17.36H604.25z"/>
	
		<linearGradient id="SVGID_00000111193231318985621650000006027816628557150606_" gradientUnits="userSpaceOnUse" x1="511.3421" y1="817.3188" x2="1264.7289" y2="817.3188">
		<stop  offset="6.393348e-08" style="stop-color:#142FFA"/>
		<stop  offset="0.4307" style="stop-color:#1534F6"/>
		<stop  offset="0.7143" style="stop-color:#1898FA"/>
		<stop  offset="0.9979" style="stop-color:#1BFFFF"/>
	</linearGradient>
	<path style="fill:url(#SVGID_00000111193231318985621650000006027816628557150606_);" d="M709.54,857.58
		c-6.19,0-11.91-1-17.14-2.99c-5.24-1.99-9.79-4.81-13.66-8.46c-3.87-3.65-6.88-7.91-9.01-12.78c-2.14-4.87-3.21-10.21-3.21-16.04
		c0-5.82,1.07-11.17,3.21-16.04c2.14-4.87,5.14-9.12,9.01-12.77s8.42-6.47,13.66-8.46c5.23-1.99,10.95-2.99,17.14-2.99
		c6.27,0,12,1,17.2,2.99c5.2,1.99,9.71,4.81,13.55,8.46c3.83,3.65,6.84,7.91,9.01,12.77c2.17,4.87,3.26,10.21,3.26,16.04
		c0,5.83-1.09,11.19-3.26,16.09c-2.18,4.9-5.18,9.16-9.01,12.77c-3.83,3.61-8.35,6.42-13.55,8.41
		C721.54,856.58,715.81,857.58,709.54,857.58z M709.54,839.44c2.95,0,5.7-0.52,8.24-1.55c2.54-1.03,4.76-2.52,6.64-4.48
		c1.88-1.95,3.35-4.29,4.42-7.02c1.07-2.73,1.6-5.75,1.6-9.07c0-3.39-0.54-6.43-1.6-9.12c-1.07-2.69-2.54-5.01-4.42-6.97
		c-1.88-1.95-4.09-3.45-6.64-4.48c-2.54-1.03-5.29-1.55-8.24-1.55c-2.95,0-5.7,0.52-8.24,1.55c-2.54,1.03-4.76,2.53-6.64,4.48
		c-1.88,1.96-3.36,4.28-4.42,6.97c-1.07,2.69-1.6,5.73-1.6,9.12c0,3.32,0.53,6.34,1.6,9.07c1.07,2.73,2.54,5.07,4.42,7.02
		c1.88,1.96,4.09,3.45,6.64,4.48C703.84,838.92,706.59,839.44,709.54,839.44z"/>
	
		<linearGradient id="SVGID_00000057867955311104316900000000937863890202144670_" gradientUnits="userSpaceOnUse" x1="511.3421" y1="817.3188" x2="1264.7289" y2="817.3188">
		<stop  offset="6.393348e-08" style="stop-color:#142FFA"/>
		<stop  offset="0.4307" style="stop-color:#1534F6"/>
		<stop  offset="0.7143" style="stop-color:#1898FA"/>
		<stop  offset="0.9979" style="stop-color:#1BFFFF"/>
	</linearGradient>
	<path style="fill:url(#SVGID_00000057867955311104316900000000937863890202144670_);" d="M764.07,856.03v-77.42h39.6
		c10.18,0,17.77,1.86,22.78,5.58c5.01,3.72,7.52,8.61,7.52,14.65c0,3.98-1.05,7.47-3.15,10.45c-2.1,2.99-5.05,5.35-8.85,7.08
		c-3.8,1.73-8.31,2.6-13.55,2.6l2.21-5.31c5.46,0,10.21,0.83,14.27,2.49c4.05,1.66,7.21,4.06,9.46,7.19
		c2.25,3.13,3.37,6.95,3.37,11.45c0,6.71-2.71,11.93-8.13,15.65c-5.42,3.72-13.33,5.58-23.72,5.58H764.07z M785.74,840.21h18.36
		c3.76,0,6.62-0.64,8.57-1.94c1.95-1.29,2.93-3.26,2.93-5.92s-0.98-4.63-2.93-5.92c-1.95-1.29-4.81-1.94-8.57-1.94H784.2v-15.15
		h16.59c3.69,0,6.45-0.63,8.3-1.88c1.84-1.25,2.76-3.13,2.76-5.64c0-2.51-0.92-4.37-2.76-5.58c-1.84-1.22-4.61-1.83-8.3-1.83h-15.04
		V840.21z"/>
	
		<linearGradient id="SVGID_00000124865295876332936160000012003250534653502359_" gradientUnits="userSpaceOnUse" x1="511.3421" y1="817.3188" x2="1264.7289" y2="817.3188">
		<stop  offset="6.393348e-08" style="stop-color:#142FFA"/>
		<stop  offset="0.4307" style="stop-color:#1534F6"/>
		<stop  offset="0.7143" style="stop-color:#1898FA"/>
		<stop  offset="0.9979" style="stop-color:#1BFFFF"/>
	</linearGradient>
	<path style="fill:url(#SVGID_00000124865295876332936160000012003250534653502359_);" d="M849.12,856.03v-77.42h21.9v77.42H849.12z
		"/>
	
		<linearGradient id="SVGID_00000137832298119231486840000011037881729335261106_" gradientUnits="userSpaceOnUse" x1="511.3421" y1="817.3188" x2="1264.7289" y2="817.3188">
		<stop  offset="6.393348e-08" style="stop-color:#142FFA"/>
		<stop  offset="0.4307" style="stop-color:#1534F6"/>
		<stop  offset="0.7143" style="stop-color:#1898FA"/>
		<stop  offset="0.9979" style="stop-color:#1BFFFF"/>
	</linearGradient>
	<path style="fill:url(#SVGID_00000137832298119231486840000011037881729335261106_);" d="M925.21,857.58
		c-6.12,0-11.78-0.98-16.98-2.93c-5.2-1.95-9.7-4.74-13.49-8.35c-3.8-3.61-6.77-7.87-8.9-12.77c-2.14-4.9-3.21-10.3-3.21-16.2
		c0-5.9,1.07-11.3,3.21-16.2c2.14-4.9,5.1-9.16,8.9-12.77c3.8-3.61,8.29-6.4,13.49-8.35c5.2-1.95,10.86-2.93,16.98-2.93
		c7.15,0,13.55,1.25,19.19,3.76c5.64,2.51,10.34,6.12,14.1,10.84l-13.94,12.61c-2.51-2.95-5.25-5.2-8.24-6.75
		c-2.99-1.55-6.32-2.32-10.01-2.32c-3.17,0-6.08,0.52-8.74,1.55c-2.65,1.03-4.92,2.53-6.8,4.48c-1.88,1.96-3.36,4.3-4.42,7.02
		c-1.07,2.73-1.6,5.75-1.6,9.07c0,3.32,0.53,6.34,1.6,9.07c1.07,2.73,2.54,5.07,4.42,7.02c1.88,1.96,4.15,3.45,6.8,4.48
		c2.65,1.03,5.57,1.55,8.74,1.55c3.69,0,7.02-0.77,10.01-2.32c2.99-1.55,5.73-3.8,8.24-6.75l13.94,12.61
		c-3.76,4.65-8.46,8.24-14.1,10.78S932.36,857.58,925.21,857.58z"/>
	
		<linearGradient id="SVGID_00000119088669286678919670000005617580360045600135_" gradientUnits="userSpaceOnUse" x1="511.3421" y1="817.3188" x2="1264.7289" y2="817.3188">
		<stop  offset="6.393348e-08" style="stop-color:#142FFA"/>
		<stop  offset="0.4307" style="stop-color:#1534F6"/>
		<stop  offset="0.7143" style="stop-color:#1898FA"/>
		<stop  offset="0.9979" style="stop-color:#1BFFFF"/>
	</linearGradient>
	<path style="fill:url(#SVGID_00000119088669286678919670000005617580360045600135_);" d="M957.62,856.03l34.18-77.42h21.57
		l34.29,77.42h-22.78l-26.77-66.69h8.63l-26.77,66.69H957.62z M976.31,840.99l5.64-16.15h37.83l5.64,16.15H976.31z"/>
	
		<linearGradient id="SVGID_00000052064257180667386570000014063098519900074403_" gradientUnits="userSpaceOnUse" x1="511.3421" y1="817.3188" x2="1264.7289" y2="817.3188">
		<stop  offset="6.393348e-08" style="stop-color:#142FFA"/>
		<stop  offset="0.4307" style="stop-color:#1534F6"/>
		<stop  offset="0.7143" style="stop-color:#1898FA"/>
		<stop  offset="0.9979" style="stop-color:#1BFFFF"/>
	</linearGradient>
	<path style="fill:url(#SVGID_00000052064257180667386570000014063098519900074403_);" d="M1053.84,856.03v-77.42h35.39
		c7.08,0,13.18,1.14,18.3,3.43c5.12,2.29,9.09,5.59,11.89,9.9c2.8,4.31,4.2,9.42,4.2,15.32c0,5.83-1.4,10.86-4.2,15.1
		c-2.8,4.24-6.77,7.49-11.89,9.73c-5.13,2.25-11.23,3.37-18.3,3.37h-23.23l9.73-9.18v29.75H1053.84z M1075.74,828.6l-9.73-10.06
		h21.9c4.57,0,7.98-1,10.23-2.99c2.25-1.99,3.37-4.76,3.37-8.29c0-3.61-1.12-6.42-3.37-8.41c-2.25-1.99-5.66-2.99-10.23-2.99h-21.9
		l9.73-10.07V828.6z M1101.73,856.03l-19.25-28.2h23.34l19.36,28.2H1101.73z"/>
	
		<linearGradient id="SVGID_00000175281516062898566230000010327982211217821628_" gradientUnits="userSpaceOnUse" x1="511.3421" y1="817.3188" x2="1264.7289" y2="817.3188">
		<stop  offset="6.393348e-08" style="stop-color:#142FFA"/>
		<stop  offset="0.4307" style="stop-color:#1534F6"/>
		<stop  offset="0.7143" style="stop-color:#1898FA"/>
		<stop  offset="0.9979" style="stop-color:#1BFFFF"/>
	</linearGradient>
	<path style="fill:url(#SVGID_00000175281516062898566230000010327982211217821628_);" d="M1157.36,839.11h40.48v16.92h-62.16
		v-77.42h60.72v16.92h-39.04V839.11z M1155.81,808.58h35.95v16.37h-35.95V808.58z"/>
</g>
<g>
	<path class="st14" d="M533.57,929.18v19.48h-7.8v-19.48l-11.17-30.54h8.46l6.7,21.17l6.96-21.17h8.42L533.57,929.18z"/>
	<path class="st14" d="M613.01,905.78v42.88h-7.73v-42.88h-9.67v-7.14h27.14v7.14H613.01z"/>
	<path class="st14" d="M642.03,948.66v-50.02h22.63v7.14h-14.91v13.18h11.02v7.14h-11.02v15.42h14.91v7.14H642.03z M655.54,894.65
		l-2.34-2.53l-2.31,2.53h-6.3l4.72-6.67h7.8l4.72,6.67H655.54z M651.44,886.44l3.44-6.67h7.25l-5.38,6.67H651.44z"/>
	<path class="st14" d="M745.24,936.65c0,2-0.35,3.79-1.04,5.37c-0.7,1.57-1.67,2.91-2.91,4.01s-2.69,1.93-4.34,2.51
		c-1.65,0.57-3.45,0.86-5.4,0.86c-4.61,0-8.12-1.26-10.51-3.77c-2.39-2.51-3.94-5.96-4.65-10.33l7.43-2.16
		c0.15,1.1,0.4,2.18,0.75,3.26c0.35,1.08,0.83,2.04,1.43,2.89c0.6,0.85,1.34,1.54,2.23,2.07c0.89,0.52,2,0.79,3.31,0.79
		c1.73,0,3.11-0.51,4.14-1.54s1.54-2.42,1.54-4.17c0-1.54-0.47-2.95-1.41-4.23c-0.94-1.28-2.14-2.52-3.59-3.72
		c-1.45-1.2-3-2.38-4.65-3.55c-1.65-1.17-3.2-2.47-4.65-3.9c-1.45-1.43-2.66-3.01-3.61-4.76c-0.95-1.75-1.43-3.75-1.43-6.02
		c0-1.88,0.33-3.58,1.01-5.11c0.67-1.53,1.6-2.83,2.78-3.9c1.18-1.07,2.56-1.9,4.14-2.47c1.58-0.57,3.28-0.86,5.11-0.86
		c2,0,3.77,0.31,5.29,0.93c1.53,0.62,2.86,1.5,4.01,2.62c1.15,1.12,2.11,2.45,2.89,3.97c0.78,1.53,1.39,3.19,1.83,5l-7.4,2.16
		c-0.22-0.81-0.5-1.66-0.84-2.56c-0.34-0.9-0.77-1.7-1.3-2.4c-0.53-0.7-1.15-1.28-1.89-1.76c-0.73-0.48-1.6-0.71-2.6-0.71
		c-1.44,0-2.64,0.49-3.59,1.46c-0.95,0.98-1.43,2.18-1.43,3.62c0,1.51,0.48,2.89,1.43,4.14c0.95,1.25,2.16,2.44,3.61,3.59
		s3,2.33,4.65,3.53c1.65,1.21,3.2,2.54,4.65,3.99c1.45,1.45,2.65,3.09,3.59,4.91C744.77,932.23,745.24,934.31,745.24,936.65z"/>
	<path class="st14" d="M792.43,932.77c0,2.15-0.15,4.21-0.44,6.19s-1.09,3.86-2.38,5.64c-1.27,1.76-2.86,3-4.78,3.72
		c-1.92,0.72-3.92,1.08-6.02,1.08s-4.1-0.36-6.01-1.08c-1.9-0.72-3.5-1.96-4.8-3.72c-1.29-1.68-2.09-3.56-2.4-5.64
		c-0.31-2.07-0.46-4.14-0.46-6.19v-18.24c0-2.1,0.17-4.15,0.49-6.15c0.33-2,1.12-3.87,2.36-5.6c1.25-1.76,2.83-3.01,4.76-3.75
		c1.93-0.75,3.94-1.12,6.04-1.12c2.15,0,4.16,0.37,6.02,1.12c1.87,0.74,3.46,2,4.78,3.75c1.29,1.68,2.09,3.55,2.38,5.6
		s0.44,4.1,0.44,6.15V932.77z M781.11,894.65l-2.31-2.53l-2.34,2.53h-6.3l4.72-6.67h7.8l4.72,6.67H781.11z M784.74,914.68
		c0-1.15-0.03-2.31-0.09-3.48c-0.06-1.17-0.36-2.28-0.9-3.33c-0.51-0.9-1.21-1.58-2.11-2.03c-0.89-0.45-1.84-0.68-2.84-0.68
		c-1.46,0-2.59,0.29-3.39,0.86c-0.79,0.57-1.38,1.32-1.76,2.25c-0.38,0.93-0.6,1.95-0.68,3.08c-0.07,1.12-0.11,2.23-0.11,3.33v17.94
		c0,1.1,0.04,2.21,0.11,3.33c0.07,1.12,0.3,2.15,0.68,3.08c0.38,0.93,0.96,1.68,1.76,2.25c0.79,0.57,1.92,0.86,3.39,0.86
		c1.44,0,2.56-0.29,3.37-0.86c0.81-0.57,1.39-1.32,1.76-2.25c0.37-0.93,0.59-1.95,0.68-3.08c0.09-1.12,0.13-2.23,0.13-3.33V914.68z
		 M776.17,886.44l3.44-6.67h7.29l-5.42,6.67H776.17z"/>
	<path class="st14" d="M862.38,905.78v42.88h-7.73v-42.88h-9.67v-7.14h27.14v7.14H862.38z"/>
	<path class="st14" d="M918.18,932.77c0,2.15-0.15,4.21-0.44,6.19s-1.09,3.86-2.38,5.64c-1.27,1.76-2.86,3-4.78,3.72
		c-1.92,0.72-3.92,1.08-6.02,1.08s-4.1-0.36-6.01-1.08c-1.9-0.72-3.5-1.96-4.8-3.72c-1.29-1.68-2.09-3.56-2.4-5.64
		c-0.31-2.07-0.46-4.14-0.46-6.19v-18.24c0-2.1,0.17-4.15,0.49-6.15c0.33-2,1.12-3.87,2.36-5.6c1.25-1.76,2.83-3.01,4.76-3.75
		c1.93-0.75,3.94-1.12,6.04-1.12c2.15,0,4.16,0.37,6.02,1.12c1.87,0.74,3.46,2,4.78,3.75c1.29,1.68,2.09,3.55,2.38,5.6
		s0.44,4.1,0.44,6.15V932.77z M910.49,914.68c0-1.15-0.03-2.31-0.09-3.48c-0.06-1.17-0.36-2.28-0.9-3.33
		c-0.51-0.9-1.21-1.58-2.11-2.03c-0.89-0.45-1.84-0.68-2.84-0.68c-1.46,0-2.59,0.29-3.39,0.86c-0.79,0.57-1.38,1.32-1.76,2.25
		c-0.38,0.93-0.6,1.95-0.68,3.08c-0.07,1.12-0.11,2.23-0.11,3.33v17.94c0,1.1,0.04,2.21,0.11,3.33c0.07,1.12,0.3,2.15,0.68,3.08
		c0.38,0.93,0.96,1.68,1.76,2.25c0.79,0.57,1.92,0.86,3.39,0.86c1.44,0,2.56-0.29,3.37-0.86c0.81-0.57,1.39-1.32,1.76-2.25
		c0.37-0.93,0.59-1.95,0.68-3.08c0.09-1.12,0.13-2.23,0.13-3.33V914.68z"/>
	<path class="st14" d="M960.82,948.66l-2.09-10.88h-10.73l-1.94,10.88h-7.58l9.6-50.02h10.58l10.11,50.02H960.82z M951.16,894.65
		l-5.38-6.67h7.25l3.48,6.67H951.16z M953.24,908.23l-3.96,22.41h8.09L953.24,908.23z"/>
	<path class="st14" d="M1009.85,948.66l-13.4-33.29v33.29h-7.36v-50.02h7.8l12.52,31.13v-31.13h7.36v50.02H1009.85z"/>
	<path class="st14" d="M1099.76,933.06c0,4.96-1.11,8.79-3.33,11.52c-2.22,2.72-5.91,4.08-11.06,4.08h-12.23v-50.02h12.23
		c5.2,0,8.9,1.36,11.1,4.08c2.2,2.72,3.29,6.59,3.29,11.59V933.06z M1092.03,916.4c0-1.39-0.07-2.73-0.22-4.03
		c-0.15-1.29-0.47-2.43-0.97-3.41s-1.24-1.75-2.22-2.33c-0.98-0.57-2.32-0.86-4.03-0.86h-3.74v35.74h3.74
		c1.71,0,3.06-0.29,4.06-0.86c1-0.57,1.75-1.35,2.25-2.33s0.81-2.1,0.93-3.37s0.18-2.62,0.18-4.07V916.4z"/>
	<path class="st14" d="M1142.41,948.66l-2.09-10.88h-10.73l-1.94,10.88h-7.58l9.6-50.02h10.58l10.11,50.02H1142.41z M1137.32,894.65
		l-2.38-2.53l-2.34,2.53h-6.3l4.72-6.67h7.87l4.65,6.67H1137.32z M1134.83,908.23l-3.96,22.41h8.09L1134.83,908.23z"/>
	<path class="st14" d="M1191.43,948.66l-13.4-33.29v33.29h-7.36v-50.02h7.8l12.52,31.13v-31.13h7.36v50.02H1191.43z"/>
</g>
</svg>
