<?xml version="1.0" encoding="utf-8"?>
<!-- Generator: Adobe Illustrator 26.2.1, SVG Export Plug-In . SVG Version: 6.00 Build 0)  -->
<svg version="1.1" id="Layer_1" xmlns="http://www.w3.org/2000/svg" xmlns:xlink="http://www.w3.org/1999/xlink" x="0px" y="0px"
	 viewBox="0 0 762.75 846" style="enable-background:new 0 0 762.75 846;" xml:space="preserve">
<style type="text/css">
	.st0{fill:#FFFFFF;}
</style>
<g>
	<g>
		<path class="st0" d="M408.25,300.21c0,0,20.63,32.54,26.25,69.21l1.16,9.28l-0.03,85.57c0,0-4.61,26.72-21.67,40.53
			c-17.07,13.81-28.7,17.32-43.88,18.79s-37.46-7.24-45.66-15.17c-8.2-7.92-23.83-23.66-25.93-47.65l0.11-97.12h-95.97
			c0,0-50.64-5.32-59.4-60.22v-20.6c0,0,6.1-48.79,56.74-59.2h85.15C285.11,223.63,357.75,223.78,408.25,300.21z"/>
		<path class="st0" d="M408.64,300.83"/>
		<path class="st0" d="M358.54,250.04"/>
	</g>
	<path class="st0" d="M533.04,364.46c0,0,46.55-2.47,59-58.91v-22.02c0,0-4.54-48.31-56.85-59.03h-98.41l-0.01-77.42V127.3
		c0,0-4.13-52.96-59.09-62.47h-19.06c0,0-3.64,0.38-9.13,1.98c-14.96,4.38-43.62,17.92-49.67,57.97v83.31l1.05,8.33
		c0,0,115.53,19.1,141.24,145.88c0,0,9.36,2.39,10.58,2.17C453.9,364.24,533.04,364.46,533.04,364.46z"/>
	<path class="st0" d="M605.54,290.62c0,0,3.55-24,24.97-25.81h8.79c0,0,18.17,1.15,23.94,21.87v26.43
		c0,0-13.52,240.73-266.19,274.53c-15.88,1.8-31.4,1.82-46.54,0c0,0-156.96-7.66-227.59-157.63c-12.6-26.75-22.45-58.03-28.18-94.6
		c0,0-23.05-124.48,70.04-225.9s202.57-86.86,202.57-86.86s-102.02-0.39-173.1,73.05s-93.75,151-76.47,249.86
		S228.6,545.84,357.6,547.65S609.23,443.96,605.54,290.62z"/>
</g>
<g>
	<path class="st0" d="M79.04,727.33c-6.12,0-11.8-0.98-17.03-2.93c-5.24-1.95-9.75-4.74-13.55-8.35s-6.77-7.87-8.9-12.77
		c-2.14-4.9-3.21-10.3-3.21-16.2s1.07-11.3,3.21-16.2s5.12-9.16,8.96-12.77c3.83-3.61,8.39-6.4,13.66-8.35
		c5.27-1.95,11.04-2.93,17.31-2.93c7.3,0,13.83,1.22,19.58,3.65c5.75,2.43,10.51,5.94,14.27,10.51L99.4,673.6
		c-2.65-2.88-5.51-5.03-8.57-6.47c-3.06-1.44-6.47-2.16-10.23-2.16c-3.32,0-6.34,0.52-9.07,1.55c-2.73,1.03-5.05,2.53-6.97,4.48
		c-1.92,1.96-3.41,4.28-4.48,6.97c-1.07,2.69-1.6,5.73-1.6,9.12c0,3.25,0.53,6.23,1.6,8.96c1.07,2.73,2.56,5.07,4.48,7.02
		c1.92,1.95,4.22,3.47,6.91,4.53c2.69,1.07,5.66,1.6,8.9,1.6c3.24,0,6.41-0.53,9.51-1.6c3.1-1.07,6.23-2.89,9.4-5.47l12.28,15.37
		c-4.42,3.17-9.55,5.6-15.37,7.3C90.36,726.48,84.65,727.33,79.04,727.33z M92.21,714.61v-29.2h19.36v32.08L92.21,714.61z"/>
	<path class="st0" d="M125.5,725.78v-77.42h21.9v60.06h36.94v17.36H125.5z"/>
	<path class="st0" d="M230.79,727.33c-6.19,0-11.91-1-17.14-2.99c-5.24-1.99-9.79-4.81-13.66-8.46s-6.88-7.91-9.01-12.78
		c-2.14-4.87-3.21-10.21-3.21-16.04c0-5.82,1.07-11.17,3.21-16.04s5.14-9.12,9.01-12.77s8.42-6.47,13.66-8.46
		c5.23-1.99,10.95-2.99,17.14-2.99c6.27,0,12,1,17.2,2.99s9.71,4.81,13.55,8.46c3.83,3.65,6.84,7.91,9.01,12.77
		c2.17,4.87,3.26,10.21,3.26,16.04c0,5.83-1.09,11.19-3.26,16.09c-2.18,4.9-5.18,9.16-9.01,12.77c-3.83,3.61-8.35,6.42-13.55,8.41
		C242.79,726.33,237.06,727.33,230.79,727.33z M230.79,709.19c2.95,0,5.7-0.52,8.24-1.55c2.54-1.03,4.76-2.52,6.64-4.48
		c1.88-1.95,3.35-4.29,4.42-7.02c1.07-2.73,1.6-5.75,1.6-9.07c0-3.39-0.54-6.43-1.6-9.12c-1.07-2.69-2.54-5.01-4.42-6.97
		c-1.88-1.95-4.09-3.45-6.64-4.48c-2.54-1.03-5.29-1.55-8.24-1.55s-5.7,0.52-8.24,1.55c-2.54,1.03-4.76,2.53-6.64,4.48
		c-1.88,1.96-3.36,4.28-4.42,6.97c-1.07,2.69-1.6,5.73-1.6,9.12c0,3.32,0.53,6.34,1.6,9.07c1.07,2.73,2.54,5.07,4.42,7.02
		c1.88,1.96,4.09,3.45,6.64,4.48C225.09,708.67,227.84,709.19,230.79,709.19z"/>
	<path class="st0" d="M285.32,725.78v-77.42h39.6c10.18,0,17.77,1.86,22.78,5.58c5.01,3.72,7.52,8.61,7.52,14.65
		c0,3.98-1.05,7.47-3.15,10.45c-2.1,2.99-5.05,5.35-8.85,7.08c-3.8,1.73-8.31,2.6-13.55,2.6l2.21-5.31c5.46,0,10.21,0.83,14.27,2.49
		c4.05,1.66,7.21,4.06,9.46,7.19s3.37,6.95,3.37,11.45c0,6.71-2.71,11.93-8.13,15.65c-5.42,3.72-13.33,5.58-23.72,5.58
		L285.32,725.78L285.32,725.78z M306.99,709.96h18.36c3.76,0,6.62-0.64,8.57-1.94c1.95-1.29,2.93-3.26,2.93-5.92
		s-0.98-4.63-2.93-5.92s-4.81-1.94-8.57-1.94h-19.9v-15.15h16.59c3.69,0,6.45-0.63,8.3-1.88c1.84-1.25,2.76-3.13,2.76-5.64
		s-0.92-4.37-2.76-5.58c-1.84-1.22-4.61-1.83-8.3-1.83H307v45.8H306.99z"/>
	<path class="st0" d="M370.37,725.78v-77.42h21.9v77.42H370.37z"/>
	<path class="st0" d="M446.46,727.33c-6.12,0-11.78-0.98-16.98-2.93c-5.2-1.95-9.7-4.74-13.49-8.35c-3.8-3.61-6.77-7.87-8.9-12.77
		c-2.14-4.9-3.21-10.3-3.21-16.2s1.07-11.3,3.21-16.2s5.1-9.16,8.9-12.77c3.8-3.61,8.29-6.4,13.49-8.35
		c5.2-1.95,10.86-2.93,16.98-2.93c7.15,0,13.55,1.25,19.19,3.76s10.34,6.12,14.1,10.84l-13.94,12.61c-2.51-2.95-5.25-5.2-8.24-6.75
		s-6.32-2.32-10.01-2.32c-3.17,0-6.08,0.52-8.74,1.55c-2.65,1.03-4.92,2.53-6.8,4.48c-1.88,1.96-3.36,4.3-4.42,7.02
		c-1.07,2.73-1.6,5.75-1.6,9.07s0.53,6.34,1.6,9.07c1.07,2.73,2.54,5.07,4.42,7.02c1.88,1.96,4.15,3.45,6.8,4.48
		c2.65,1.03,5.57,1.55,8.74,1.55c3.69,0,7.02-0.77,10.01-2.32s5.73-3.8,8.24-6.75l13.94,12.61c-3.76,4.65-8.46,8.24-14.1,10.78
		S453.61,727.33,446.46,727.33z"/>
	<path class="st0" d="M478.87,725.78l34.18-77.42h21.57l34.29,77.42h-22.78l-26.77-66.69h8.63l-26.77,66.69H478.87z M497.56,710.74
		l5.64-16.15h37.83l5.64,16.15H497.56z"/>
	<path class="st0" d="M575.09,725.78v-77.42h35.39c7.08,0,13.18,1.14,18.3,3.43s9.09,5.59,11.89,9.9s4.2,9.42,4.2,15.32
		c0,5.83-1.4,10.86-4.2,15.1c-2.8,4.24-6.77,7.49-11.89,9.73c-5.13,2.25-11.23,3.37-18.3,3.37h-23.23l9.73-9.18v29.75H575.09z
		 M596.99,698.35l-9.73-10.06h21.9c4.57,0,7.98-1,10.23-2.99s3.37-4.76,3.37-8.29c0-3.61-1.12-6.42-3.37-8.41s-5.66-2.99-10.23-2.99
		h-21.9l9.73-10.07V698.35z M622.98,725.78l-19.25-28.2h23.34l19.36,28.2H622.98z"/>
	<path class="st0" d="M678.61,708.86h40.48v16.92h-62.16v-77.42h60.72v16.92h-39.04L678.61,708.86L678.61,708.86z M677.06,678.33
		h35.95v16.37h-35.95V678.33z"/>
</g>
<g>
	<path class="st0" d="M54.82,798.93v19.48h-7.8v-19.48l-11.17-30.54h8.46l6.7,21.17l6.96-21.17h8.42L54.82,798.93z"/>
	<path class="st0" d="M134.26,775.53v42.88h-7.73v-42.88h-9.67v-7.14H144v7.14H134.26z"/>
	<path class="st0" d="M163.28,818.41v-50.02h22.63v7.14H171v13.18h11.02v7.14H171v15.42h14.91v7.14H163.28z M176.79,764.4
		l-2.34-2.53l-2.31,2.53h-6.3l4.72-6.67h7.8l4.72,6.67H176.79z M172.69,756.19l3.44-6.67h7.25l-5.38,6.67H172.69z"/>
	<path class="st0" d="M266.49,806.4c0,2-0.35,3.79-1.04,5.37c-0.7,1.57-1.67,2.91-2.91,4.01s-2.69,1.93-4.34,2.51
		c-1.65,0.57-3.45,0.86-5.4,0.86c-4.61,0-8.12-1.26-10.51-3.77s-3.94-5.96-4.65-10.33l7.43-2.16c0.15,1.1,0.4,2.18,0.75,3.26
		s0.83,2.04,1.43,2.89c0.6,0.85,1.34,1.54,2.23,2.07c0.89,0.52,2,0.79,3.31,0.79c1.73,0,3.11-0.51,4.14-1.54s1.54-2.42,1.54-4.17
		c0-1.54-0.47-2.95-1.41-4.23c-0.94-1.28-2.14-2.52-3.59-3.72c-1.45-1.2-3-2.38-4.65-3.55s-3.2-2.47-4.65-3.9
		c-1.45-1.43-2.66-3.01-3.61-4.76s-1.43-3.75-1.43-6.02c0-1.88,0.33-3.58,1.01-5.11c0.67-1.53,1.6-2.83,2.78-3.9
		c1.18-1.07,2.56-1.9,4.14-2.47c1.58-0.57,3.28-0.86,5.11-0.86c2,0,3.77,0.31,5.29,0.93c1.53,0.62,2.86,1.5,4.01,2.62
		s2.11,2.45,2.89,3.97c0.78,1.53,1.39,3.19,1.83,5l-7.4,2.16c-0.22-0.81-0.5-1.66-0.84-2.56s-0.77-1.7-1.3-2.4
		c-0.53-0.7-1.15-1.28-1.89-1.76c-0.73-0.48-1.6-0.71-2.6-0.71c-1.44,0-2.64,0.49-3.59,1.46c-0.95,0.98-1.43,2.18-1.43,3.62
		c0,1.51,0.48,2.89,1.43,4.14s2.16,2.44,3.61,3.59s3,2.33,4.65,3.53c1.65,1.21,3.2,2.54,4.65,3.99s2.65,3.09,3.59,4.91
		C266.02,801.98,266.49,804.06,266.49,806.4z"/>
	<path class="st0" d="M313.68,802.52c0,2.15-0.15,4.21-0.44,6.19s-1.09,3.86-2.38,5.64c-1.27,1.76-2.86,3-4.78,3.72
		c-1.92,0.72-3.92,1.08-6.02,1.08s-4.1-0.36-6.01-1.08c-1.9-0.72-3.5-1.96-4.8-3.72c-1.29-1.68-2.09-3.56-2.4-5.64
		c-0.31-2.07-0.46-4.14-0.46-6.19v-18.24c0-2.1,0.17-4.15,0.49-6.15c0.33-2,1.12-3.87,2.36-5.6c1.25-1.76,2.83-3.01,4.76-3.75
		c1.93-0.75,3.94-1.12,6.04-1.12c2.15,0,4.16,0.37,6.02,1.12c1.87,0.74,3.46,2,4.78,3.75c1.29,1.68,2.09,3.55,2.38,5.6
		s0.44,4.1,0.44,6.15v18.24H313.68z M302.36,764.4l-2.31-2.53l-2.34,2.53h-6.3l4.72-6.67h7.8l4.72,6.67H302.36z M305.99,784.43
		c0-1.15-0.03-2.31-0.09-3.48s-0.36-2.28-0.9-3.33c-0.51-0.9-1.21-1.58-2.11-2.03c-0.89-0.45-1.84-0.68-2.84-0.68
		c-1.46,0-2.59,0.29-3.39,0.86c-0.79,0.57-1.38,1.32-1.76,2.25s-0.6,1.95-0.68,3.08c-0.07,1.12-0.11,2.23-0.11,3.33v17.94
		c0,1.1,0.04,2.21,0.11,3.33s0.3,2.15,0.68,3.08s0.96,1.68,1.76,2.25c0.79,0.57,1.92,0.86,3.39,0.86c1.44,0,2.56-0.29,3.37-0.86
		s1.39-1.32,1.76-2.25s0.59-1.95,0.68-3.08c0.09-1.12,0.13-2.23,0.13-3.33L305.99,784.43L305.99,784.43z M297.42,756.19l3.44-6.67
		h7.29l-5.42,6.67H297.42z"/>
	<path class="st0" d="M383.63,775.53v42.88h-7.73v-42.88h-9.67v-7.14h27.14v7.14H383.63z"/>
	<path class="st0" d="M439.43,802.52c0,2.15-0.15,4.21-0.44,6.19s-1.09,3.86-2.38,5.64c-1.27,1.76-2.86,3-4.78,3.72
		c-1.92,0.72-3.92,1.08-6.02,1.08s-4.1-0.36-6.01-1.08c-1.9-0.72-3.5-1.96-4.8-3.72c-1.29-1.68-2.09-3.56-2.4-5.64
		c-0.31-2.07-0.46-4.14-0.46-6.19v-18.24c0-2.1,0.17-4.15,0.49-6.15c0.33-2,1.12-3.87,2.36-5.6c1.25-1.76,2.83-3.01,4.76-3.75
		c1.93-0.75,3.94-1.12,6.04-1.12c2.15,0,4.16,0.37,6.02,1.12c1.87,0.74,3.46,2,4.78,3.75c1.29,1.68,2.09,3.55,2.38,5.6
		s0.44,4.1,0.44,6.15v18.24H439.43z M431.74,784.43c0-1.15-0.03-2.31-0.09-3.48s-0.36-2.28-0.9-3.33c-0.51-0.9-1.21-1.58-2.11-2.03
		c-0.89-0.45-1.84-0.68-2.84-0.68c-1.46,0-2.59,0.29-3.39,0.86c-0.79,0.57-1.38,1.32-1.76,2.25s-0.6,1.95-0.68,3.08
		c-0.07,1.12-0.11,2.23-0.11,3.33v17.94c0,1.1,0.04,2.21,0.11,3.33s0.3,2.15,0.68,3.08s0.96,1.68,1.76,2.25
		c0.79,0.57,1.92,0.86,3.39,0.86c1.44,0,2.56-0.29,3.37-0.86s1.39-1.32,1.76-2.25s0.59-1.95,0.68-3.08
		c0.09-1.12,0.13-2.23,0.13-3.33L431.74,784.43L431.74,784.43z"/>
	<path class="st0" d="M482.07,818.41l-2.09-10.88h-10.73l-1.94,10.88h-7.58l9.6-50.02h10.58l10.11,50.02H482.07z M472.41,764.4
		l-5.38-6.67h7.25l3.48,6.67H472.41z M474.49,777.98l-3.96,22.41h8.09L474.49,777.98z"/>
	<path class="st0" d="M531.1,818.41l-13.4-33.29v33.29h-7.36v-50.02h7.8l12.52,31.13v-31.13h7.36v50.02H531.1z"/>
	<path class="st0" d="M621.01,802.81c0,4.96-1.11,8.79-3.33,11.52c-2.22,2.72-5.91,4.08-11.06,4.08h-12.23v-50.02h12.23
		c5.2,0,8.9,1.36,11.1,4.08c2.2,2.72,3.29,6.59,3.29,11.59V802.81z M613.28,786.15c0-1.39-0.07-2.73-0.22-4.03
		c-0.15-1.29-0.47-2.43-0.97-3.41s-1.24-1.75-2.22-2.33c-0.98-0.57-2.32-0.86-4.03-0.86h-3.74v35.74h3.74
		c1.71,0,3.06-0.29,4.06-0.86s1.75-1.35,2.25-2.33s0.81-2.1,0.93-3.37s0.18-2.62,0.18-4.07v-14.48H613.28z"/>
	<path class="st0" d="M663.66,818.41l-2.09-10.88h-10.73l-1.94,10.88h-7.58l9.6-50.02h10.58l10.11,50.02H663.66z M658.57,764.4
		l-2.38-2.53l-2.34,2.53h-6.3l4.72-6.67h7.87l4.65,6.67H658.57z M656.08,777.98l-3.96,22.41h8.09L656.08,777.98z"/>
	<path class="st0" d="M712.68,818.41l-13.4-33.29v33.29h-7.36v-50.02h7.8l12.52,31.13v-31.13h7.36v50.02H712.68z"/>
</g>
</svg>
